<?xml version="1.0" encoding="utf-8"?>
<!-- Generator: Adobe Illustrator 16.0.0, SVG Export Plug-In . SVG Version: 6.00 Build 0)  -->
<!DOCTYPE svg PUBLIC "-//W3C//DTD SVG 1.1//EN" "http://www.w3.org/Graphics/SVG/1.1/DTD/svg11.dtd">
<svg version="1.1" id="WSTW_ohne_Lin" xmlns="http://www.w3.org/2000/svg" xmlns:xlink="http://www.w3.org/1999/xlink" x="0px"
	 y="0px" width="167.242px" height="167.243px" viewBox="0 0 167.242 167.243" enable-background="new 0 0 167.242 167.243"
	 xml:space="preserve">
<g>
	<g id="Raute_55_">
		<path id="Rautenteil_unten_55_" fill="#1B0252" d="M53.1,124.44c-0.523,0-0.951-0.426-0.951-0.953c0-0.301,0.143-0.57,0.363-0.748
			l19.277-14.221l-50.618,0.006c-0.527,0-0.95-0.428-0.95-0.949c0-0.326,0.159-0.609,0.406-0.785L47.1,87.282
			c0.173-0.172,0.41-0.281,0.674-0.281h20.525c4.604,0.168,7.063,0.662,8.475,1.594c1.728,1.15,2.237,2.471,2.553,3.338
			c2.289,6.283,5.243,26.318,5.386,27.291c0.143-0.973,3.098-21.008,5.387-27.291c0.319-0.867,0.829-2.188,2.557-3.338
			c1.413-0.932,3.87-1.426,8.471-1.594h50.328c0.527,0,0.955,0.428,0.955,0.953c0,0.33-0.169,0.619-0.419,0.791l-48.005,35.502
			c-0.16,0.121-0.358,0.193-0.575,0.193H53.1z"/>
		<path fill="#ED1C24" d="M148.245,58.429c0.522,0,0.95,0.426,0.95,0.953c0,0.322-0.16,0.607-0.406,0.779l-26.646,19.613
			c-0.155,0.109-0.341,0.174-0.549,0.174h-20.521c-4.604-0.168-7.059-0.66-8.475-1.598c-1.724-1.145-2.238-2.467-2.553-3.336
			c-2.289-6.283-5.244-26.313-5.387-27.289c-0.143,0.977-3.097,21.006-5.386,27.289c-0.315,0.869-0.829,2.191-2.558,3.336
			c-1.412,0.938-3.865,1.43-8.47,1.598l-50.354,0.014c-0.527,0-0.95-0.428-0.95-0.953c0-0.287,0.125-0.547,0.328-0.719l1.533-1.133
			l46.571-34.436c0.164-0.131,0.371-0.209,0.596-0.209h50.32c0.522,0,0.95,0.428,0.95,0.955c0,0.311-0.151,0.586-0.385,0.762
			L97.588,58.437L148.245,58.429z"/>
	</g>
</g>
</svg>
