<?xml version="1.0" encoding="UTF-8" standalone="no"?>
<!DOCTYPE svg PUBLIC "-//W3C//DTD SVG 1.1//EN" "http://www.w3.org/Graphics/SVG/1.1/DTD/svg11.dtd">
<!-- Created with Inkscape (http://www.inkscape.org/) by Marsupilami -->
<svg
   xmlns:svg="http://www.w3.org/2000/svg"
   xmlns="http://www.w3.org/2000/svg"
   version="1.1"
   width="561.27002"
   height="131.61"
   id="svg6903">
  <defs
     id="defs6905" />
  <path
     d="m 0,131.61 561.27,0 L 561.27,0 0,0 0,131.61 z"
     id="path3482"
     style="fill:#e3000f;fill-opacity:1;fill-rule:nonzero;stroke:none" />
  <path
     d="m 1.38,130.23 130.23,0 0,-128.85 -130.23,0 0,128.85 z"
     id="path3484"
     style="fill:#ffffff;fill-opacity:1;fill-rule:nonzero;stroke:none" />
  <path
     d="m 44.842,93.951 c -0.36,0 -0.65,-0.29 -0.65,-0.65 0,-0.21 0.1,-0.4 0.25,-0.52 l 13.23,-9.76 -34.75,0 c -0.37,0 -0.66,-0.29 -0.66,-0.65 0,-0.22 0.11,-0.42 0.28,-0.54 l 18.18,-13.4 c 0.12,-0.11 0.28,-0.19 0.46,-0.19 l 14.1,0 c 3.16,0.12 4.84,0.46 5.82,1.1 1.18,0.79 1.53,1.69 1.75,2.29 1.57,4.32 3.6,18.07 3.7,18.74 0.1,-0.67 2.12,-14.42 3.69,-18.74 0.23,-0.6 0.57,-1.5 1.76,-2.29 0.97,-0.64 2.66,-0.98 5.82,-1.1 l 34.56,0 c 0.36,0 0.66,0.3 0.66,0.66 0,0.22 -0.12,0.42 -0.3,0.54 l -32.96,24.38 c -0.11,0.08 -0.25,0.13 -0.39,0.13 l -34.55,0 z"
     id="path3496"
     style="fill:#240c4b;fill-opacity:1;fill-rule:nonzero;stroke:none" />
  <path
     d="m 110.174,48.625 c 0.36,0 0.65,0.29 0.65,0.65 0,0.22 -0.11,0.42 -0.27,0.54 l -18.3,13.47 c -0.11,0.07 -0.24,0.11 -0.38,0.11 l -14.09,0 c -3.16,-0.11 -4.85,-0.45 -5.82,-1.09 -1.18,-0.79 -1.53,-1.69 -1.75,-2.29 -1.58,-4.32 -3.6,-18.07 -3.7,-18.74 -0.1,0.67 -2.13,14.42 -3.7,18.74 -0.22,0.6 -0.57,1.5 -1.75,2.29 -0.98,0.64 -2.66,0.98 -5.82,1.09 l -34.58,0.01 c -0.36,0 -0.65,-0.29 -0.65,-0.65 0,-0.2 0.08,-0.37 0.23,-0.49 l 1.05,-0.78 31.98,-23.65 c 0.11,-0.09 0.25,-0.14 0.41,-0.14 l 34.55,0 c 0.36,0 0.65,0.29 0.65,0.66 0,0.21 -0.1,0.4 -0.26,0.52 l -13.24,9.75 34.79,0 z"
     id="path3500"
     style="fill:#e3000f;fill-opacity:1;fill-rule:nonzero;stroke:none" />
  <path
     d="m 335.396,65.964 -5.49,0.16 0,-9.96 5.44,0 c 3.16,0 4.65,2.05 4.65,4.72 0,2.98 -1.66,4.98 -4.6,5.08 m 9.92,3.7 c 3.33,-1.44 5.04,-4.78 5.04,-9.45 0,-6.21 -4.48,-11.6 -12.91,-11.6 l -16.95,0 c -0.17,0 -0.45,-0.05 -0.45,0.46 l 0,16.79 0,16.68 c 0,0.52 0,0.47 0.45,0.47 l 8.97,0 c 0.39,0 0.44,-0.06 0.44,-0.47 l 0,-9.6 6.32,-0.1 c 0,0 3.99,5.85 5.82,9.14 0.5,0.92 0.72,1.03 1.16,1.03 l 9.7,0 c 0.61,0 0.78,-0.37 0.11,-1.39 -3.16,-4.78 -6.31,-9.86 -7.7,-11.96 m -29.82,6.11 0,6.52 c 0,0.62 -0.06,0.72 -0.61,0.72 l -24.99,0 c -0.55,0 -0.61,-0.1 -0.61,-0.72 l 0,-33.16 c 0,-0.46 -0.06,-0.51 0.5,-0.51 l 24.77,0 c 0.49,0 0.55,0.05 0.55,0.66 l 0,6.22 c 0,0.41 -0.17,0.66 -0.55,0.66 l -15.68,-0.15 0,5.75 15.34,0 c 0.5,0 0.56,0.1 0.56,0.72 l 0,6.16 c 0,0.61 -0.06,0.72 -0.56,0.72 l -15.34,0 0,5.9 16.01,-0.15 c 0.61,0 0.61,0 0.61,0.66 m 213.44,-26.54 0,34.04 c 0,0 -0.06,0.92 -0.67,0.51 -8.25,-5.75 -21.16,-16.74 -21.16,-16.74 l 0,15.51 c 0,0.46 0,0.46 -0.5,0.46 l -8.26,0 c -0.39,0 -0.55,-0.51 -0.55,-0.51 l 0,-34.4 c 0,0 0.33,-0.51 0.61,-0.36 7.81,5.19 21.22,16.69 21.22,16.69 l 0,-15.2 c 0,-0.56 0,-0.61 0.44,-0.61 l 8.31,0 c 0.56,0 0.56,0.61 0.56,0.61 m -279.5,26.54 0,6.52 c 0,0.62 -0.05,0.72 -0.61,0.72 l -24.98,0 c -0.56,0 -0.62,-0.1 -0.62,-0.72 l 0,-33.16 c 0,-0.46 -0.05,-0.51 0.5,-0.51 l 24.77,0 c 0.5,0 0.56,0.05 0.56,0.66 l 0,6.22 c 0,0.41 -0.17,0.66 -0.56,0.66 l -15.68,-0.15 0,5.75 15.35,0 c 0.49,0 0.55,0.1 0.55,0.72 l 0,6.16 c 0,0.61 -0.06,0.72 -0.55,0.72 l -15.35,0 0,5.9 16.01,-0.15 c 0.61,0 0.61,0 0.61,0.66 m 243.78,0 0,6.52 c 0,0.62 -0.06,0.72 -0.61,0.72 l -24.99,0 c -0.55,0 -0.61,-0.1 -0.61,-0.72 l 0,-33.16 c 0,-0.46 -0.06,-0.51 0.5,-0.51 l 24.77,0 c 0.49,0 0.55,0.05 0.55,0.66 l 0,6.22 c 0,0.41 -0.17,0.66 -0.55,0.66 l -15.69,-0.15 0,5.75 15.35,0 c 0.5,0 0.56,0.1 0.56,0.72 l 0,6.16 c 0,0.61 -0.06,0.72 -0.56,0.72 l -15.35,0 0,5.9 16.02,-0.15 c 0.61,0 0.61,0 0.61,0.66 m -30.78,-26.69 0,16.78 0,16.69 c 0,0.41 -0.06,0.46 -0.56,0.46 l -9.08,0 c -0.5,0 -0.5,0.05 -0.5,-0.46 l 0,-16.69 0,-16.78 c 0,-0.51 0,-0.46 0.5,-0.46 l 9.08,0 c 0.5,0 0.56,0.05 0.56,0.46 m -14.71,0.15 0,34.04 c 0,0 -0.06,0.92 -0.67,0.51 -8.25,-5.75 -21.16,-16.74 -21.16,-16.74 l 0,15.51 c 0,0.46 0,0.46 -0.5,0.46 l -8.26,0 c -0.38,0 -0.55,-0.51 -0.55,-0.51 l 0,-34.4 c 0,0 0.33,-0.51 0.61,-0.36 7.81,5.19 21.22,16.69 21.22,16.69 l 0,-15.2 c 0,-0.56 0,-0.61 0.44,-0.61 l 8.31,0 c 0.56,0 0.56,0.61 0.56,0.61 m -35.71,-0.15 0,16.78 0,16.69 c 0,0.41 -0.06,0.46 -0.55,0.46 l -9.09,0 c -0.5,0 -0.5,0.05 -0.5,-0.46 l 0,-16.69 0,-16.78 c 0,-0.51 0,-0.46 0.5,-0.46 l 9.09,0 c 0.49,0 0.55,0.05 0.55,0.46 m -14.71,26.13 0,7.34 c 0,0.41 0,0.46 -0.44,0.46 l -24.5,0 c -0.49,0 -0.49,0.05 -0.49,-0.46 l 0,-16.69 0,-16.78 c 0,-0.51 0,-0.46 0.49,-0.46 l 8.87,0 c 0.44,0 0.5,0.05 0.5,0.46 l 0,25.77 15.07,-0.16 c 0.45,0 0.5,0.11 0.5,0.52 m -192.36,-26.76 13.71,0 -44.73,34.91 0,-12.09 0,-1.19 -0.96,0.72 -16.47,12.58 0,-26.37 11.05,-8.56 0,14.91 0,1.22 0.96,-0.76 16.77,-13.23 0,11.91 0,1.2 0.95,-0.74 18.72,-14.51 z m 13.71,6.7 0,1.49 0,9.29 0,16.61 c 0,0.41 -0.06,0.46 -0.58,0.46 l -8.56,0 c -0.51,0 -0.51,0.05 -0.51,-0.46 l -0.03,-20.74 9.1,-7.11 c 0.52,0 0.58,0.05 0.58,0.46 m 66.04,-5.9 0,34 c 0,0 -0.05,0.93 -0.65,0.52 -8.14,-5.74 -20.85,-16.72 -20.85,-16.72 l 0,15.49 c 0,0.46 0,0.46 -0.49,0.46 l -8.14,0 c -0.38,0 -0.54,-0.51 -0.54,-0.51 l 0,-34.36 c 0,0 0.32,-0.52 0.6,-0.36 7.69,5.18 20.9,16.66 20.9,16.66 l 0,-15.18 c 0,-0.56 0,-0.61 0.44,-0.61 l 8.19,0 c 0.54,0 0.54,0.61 0.54,0.61"
     id="path3504"
     style="fill:#ffffff;fill-opacity:1;fill-rule:nonzero;stroke:none" />
</svg>
